<svg width="20" height="20" viewBox="0 0 20 20" fill="none" xmlns="http://www.w3.org/2000/svg">
<path fill-rule="evenodd" clip-rule="evenodd" d="M12.3999 3.6001H8.3999V5.0001C8.3999 5.99421 7.59401 6.8001 6.5999 6.8001C5.60579 6.8001 4.7999 5.99421 4.7999 5.0001V3.6001H3.5999C2.93716 3.6001 2.3999 4.13736 2.3999 4.8001V8.0001H18.3999V4.8001C18.3999 4.13736 17.8626 3.6001 17.1999 3.6001H15.9999V5.0001C15.9999 5.99421 15.194 6.8001 14.1999 6.8001C13.2058 6.8001 12.3999 5.99421 12.3999 5.0001V3.6001ZM18.3999 9.6001H2.3999V16.0001C2.3999 16.6628 2.93716 17.2001 3.5999 17.2001H17.1999C17.8626 17.2001 18.3999 16.6628 18.3999 16.0001V9.6001Z" fill="black"/>
<path d="M6 2.2001C6 1.86873 6.26863 1.6001 6.6 1.6001C6.93137 1.6001 7.2 1.86873 7.2 2.2001V5.0001C7.2 5.33147 6.93137 5.6001 6.6 5.6001C6.26863 5.6001 6 5.33147 6 5.0001V2.2001Z" fill="black"/>
<path d="M13.5999 2.2001C13.5999 1.86873 13.8685 1.6001 14.1999 1.6001C14.5312 1.6001 14.7999 1.86873 14.7999 2.2001V5.0001C14.7999 5.33147 14.5312 5.6001 14.1999 5.6001C13.8685 5.6001 13.5999 5.33147 13.5999 5.0001V2.2001Z" fill="black"/>
</svg>
